<?xml version="1.0" encoding="utf-8"?>
<!-- Generator: Adobe Illustrator 27.0.0, SVG Export Plug-In . SVG Version: 6.00 Build 0)  -->
<svg version="1.1" id="Layer_1" xmlns="http://www.w3.org/2000/svg" xmlns:xlink="http://www.w3.org/1999/xlink" x="0px" y="0px"
	 viewBox="0 0 535 800" style="enable-background:new 0 0 535 800;" xml:space="preserve">
<style type="text/css">
	.st0{fill:none;stroke:#000000;stroke-width:33.9081;stroke-miterlimit:27.1265;}
	.st1{fill:none;stroke:#000000;stroke-width:13.5632;stroke-miterlimit:27.1265;}
</style>
<path class="st0" d="M126.3,431.6v81c0,6.8,5.5,12.2,12.2,12.2H493c6.7,0,12.2-5.5,12.2-12.2V144.9c0-3.2-1.3-6.4-3.6-8.6l-109-109
	c-2.3-2.3-5.4-3.6-8.6-3.6H138.5c-6.8,0-12.2,5.5-12.2,12.2v152.7"/>
<path class="st0" d="M383,23.7v110c0,6.8,5.5,12.2,12.2,12.2h110"/>
<path class="st1" d="M456.3,353.7H266.9v-12.2h189.5c3.4,0,6.1,2.7,6.1,6.1C462.5,351,459.7,353.7,456.3,353.7z M456.3,317H266.9
	v-12.2h189.5c3.4,0,6.1,2.7,6.1,6.1C462.5,314.3,459.7,317,456.3,317z M456.3,280.4H266.9v-12.2h189.5c3.4,0,6.1,2.7,6.1,6.1
	C462.5,277.6,459.7,280.4,456.3,280.4z M456.3,243.7H266.9v-12.2h189.5c3.4,0,6.1,2.7,6.1,6.1C462.5,241,459.7,243.7,456.3,243.7z
	 M456.3,390.4H266.9v-12.2h189.5c3.4,0,6.1,2.7,6.1,6.1C462.5,387.6,459.7,390.4,456.3,390.4z"/>
<path class="st0" d="M46.8,433.2h195.6c13.5,0,24.4-10.9,24.4-24.4V213.1c0-13.5-10.9-24.4-24.4-24.4H46.8
	c-13.5,0-24.4,10.9-24.4,24.4v195.6C22.4,422.2,33.3,433.2,46.8,433.2z"/>
<path d="M105.7,351.5c0.4,3.2,0.7,6,0.8,8.3h0.5c0.2-2.2,0.5-5,1.1-8.2c0.5-3.2,1-5.9,1.5-8.1l21.6-93.9h27.9l22.3,92.5
	c1.1,4.6,2.1,10.4,2.8,17.4h0.4c0.3-4.9,1.1-10.5,2.3-16.9l17.9-93h25.4l-31.3,134.5h-29.7l-21.3-89.1c-0.6-2.6-1.3-5.9-2.1-10
	c-0.8-4.1-1.3-7.1-1.4-9H144c-0.2,2.2-0.7,5.4-1.4,9.7c-0.7,4.3-1.3,7.5-1.7,9.6l-20,88.8H90.6L59.1,249.8H85l19.5,94
	C104.8,345.8,105.3,348.4,105.7,351.5z"/>
</svg>
